<svg xmlns="http://www.w3.org/2000/svg" xmlns:xlink="http://www.w3.org/1999/xlink" width="1080" zoomAndPan="magnify" viewBox="0 0 810 1012.49997" height="1350" preserveAspectRatio="xMidYMid meet" version="1.0"><defs><clipPath id="2c0ff83126"><path d="M 284 135.3125 L 536 135.3125 L 536 186 L 284 186 Z M 284 135.3125 " clip-rule="nonzero"/></clipPath><clipPath id="cd0fb28f86"><path d="M 34.3125 385 L 85 385 L 85 637 L 34.3125 637 Z M 34.3125 385 " clip-rule="nonzero"/></clipPath><clipPath id="398e2400c1"><path d="M 735 385 L 785.441406 385 L 785.441406 637 L 735 637 Z M 735 385 " clip-rule="nonzero"/></clipPath><clipPath id="571c341039"><path d="M 284 836 L 536 836 L 536 886.441406 L 284 886.441406 Z M 284 836 " clip-rule="nonzero"/></clipPath><clipPath id="ea7174d6fb"><path d="M 218.757812 479.242188 L 601.332031 479.242188 L 601.332031 722.121094 L 218.757812 722.121094 Z M 218.757812 479.242188 " clip-rule="nonzero"/></clipPath><clipPath id="13a118297a"><path d="M 0.757812 0.242188 L 383.332031 0.242188 L 383.332031 243.121094 L 0.757812 243.121094 Z M 0.757812 0.242188 " clip-rule="nonzero"/></clipPath><clipPath id="d112c82219"><rect x="0" width="384" y="0" height="244"/></clipPath><clipPath id="14b759a050"><rect x="0" width="353" y="0" height="153"/></clipPath></defs><g clip-path="url(#2c0ff83126)"><path fill="#ffffff" d="M 385.019531 185.414062 L 535.320312 185.414062 L 535.320312 135.3125 L 284.816406 135.3125 L 284.816406 185.414062 Z M 385.019531 185.414062 " fill-opacity="1" fill-rule="nonzero"/></g><g clip-path="url(#cd0fb28f86)"><path fill="#ffffff" d="M 84.414062 536.121094 L 84.414062 385.816406 L 34.3125 385.816406 L 34.3125 636.320312 L 84.414062 636.320312 Z M 84.414062 536.121094 " fill-opacity="1" fill-rule="nonzero"/></g><g clip-path="url(#398e2400c1)"><path fill="#ffffff" d="M 735.722656 435.917969 L 735.722656 636.320312 L 785.824219 636.320312 L 785.824219 385.816406 L 735.722656 385.816406 Z M 735.722656 435.917969 " fill-opacity="1" fill-rule="nonzero"/></g><path fill="#ffffff" d="M 585.421875 235.515625 L 635.519531 235.515625 L 635.519531 185.414062 L 535.320312 185.414062 L 535.320312 235.515625 Z M 585.421875 235.515625 " fill-opacity="1" fill-rule="nonzero"/><path fill="#ffffff" d="M 635.519531 235.515625 L 685.621094 235.515625 L 685.621094 285.617188 L 635.519531 285.617188 Z M 635.519531 235.515625 " fill-opacity="1" fill-rule="nonzero"/><path fill="#ffffff" d="M 685.621094 385.816406 L 735.722656 385.816406 L 735.722656 285.617188 L 685.621094 285.617188 Z M 685.621094 385.816406 " fill-opacity="1" fill-rule="nonzero"/><path fill="#ffffff" d="M 134.515625 235.515625 L 184.617188 235.515625 L 184.617188 285.617188 L 134.515625 285.617188 Z M 134.515625 235.515625 " fill-opacity="1" fill-rule="nonzero"/><path fill="#ffffff" d="M 535.320312 385.816406 L 535.320312 335.714844 L 485.21875 335.714844 L 485.21875 435.917969 L 535.320312 435.917969 Z M 535.320312 385.816406 " fill-opacity="1" fill-rule="nonzero"/><path fill="#ffffff" d="M 435.117188 536.121094 L 334.917969 536.121094 L 334.917969 586.21875 L 485.21875 586.21875 L 485.21875 536.121094 Z M 435.117188 536.121094 " fill-opacity="1" fill-rule="nonzero"/><path fill="#ffffff" d="M 485.21875 586.21875 L 535.320312 586.21875 L 535.320312 636.320312 L 485.21875 636.320312 Z M 485.21875 586.21875 " fill-opacity="1" fill-rule="nonzero"/><path fill="#ffffff" d="M 535.320312 636.320312 L 585.417969 636.320312 L 585.417969 686.421875 L 535.320312 686.421875 Z M 535.320312 636.320312 " fill-opacity="1" fill-rule="nonzero"/><path fill="#ffffff" d="M 234.714844 636.320312 L 284.816406 636.320312 L 284.816406 686.421875 L 234.714844 686.421875 Z M 234.714844 636.320312 " fill-opacity="1" fill-rule="nonzero"/><path fill="#ffffff" d="M 284.816406 586.21875 L 334.917969 586.21875 L 334.917969 636.320312 L 284.816406 636.320312 Z M 284.816406 586.21875 " fill-opacity="1" fill-rule="nonzero"/><path fill="#ffffff" d="M 334.917969 385.816406 L 334.917969 335.714844 L 284.816406 335.714844 L 284.816406 435.917969 L 334.917969 435.917969 Z M 334.917969 385.816406 " fill-opacity="1" fill-rule="nonzero"/><path fill="#ffffff" d="M 134.515625 335.714844 L 134.515625 285.617188 L 84.414062 285.617188 L 84.414062 385.816406 L 134.515625 385.816406 Z M 134.515625 335.714844 " fill-opacity="1" fill-rule="nonzero"/><path fill="#ffffff" d="M 284.816406 235.515625 L 284.816406 185.414062 L 184.617188 185.414062 L 184.617188 235.515625 Z M 284.816406 235.515625 " fill-opacity="1" fill-rule="nonzero"/><g clip-path="url(#571c341039)"><path fill="#ffffff" d="M 435.117188 836.722656 L 284.816406 836.722656 L 284.816406 886.824219 L 535.320312 886.824219 L 535.320312 836.722656 Z M 435.117188 836.722656 " fill-opacity="1" fill-rule="nonzero"/></g><path fill="#ffffff" d="M 234.714844 786.621094 L 184.617188 786.621094 L 184.617188 836.722656 L 284.816406 836.722656 L 284.816406 786.621094 Z M 234.714844 786.621094 " fill-opacity="1" fill-rule="nonzero"/><path fill="#ffffff" d="M 134.515625 736.519531 L 184.617188 736.519531 L 184.617188 786.621094 L 134.515625 786.621094 Z M 134.515625 736.519531 " fill-opacity="1" fill-rule="nonzero"/><path fill="#ffffff" d="M 134.515625 636.320312 L 84.414062 636.320312 L 84.414062 736.523438 L 134.515625 736.523438 Z M 134.515625 636.320312 " fill-opacity="1" fill-rule="nonzero"/><path fill="#ffffff" d="M 635.519531 736.519531 L 685.621094 736.519531 L 685.621094 786.621094 L 635.519531 786.621094 Z M 635.519531 736.519531 " fill-opacity="1" fill-rule="nonzero"/><path fill="#ffffff" d="M 685.621094 686.421875 L 685.621094 736.523438 L 735.722656 736.523438 L 735.722656 636.320312 L 685.621094 636.320312 Z M 685.621094 686.421875 " fill-opacity="1" fill-rule="nonzero"/><path fill="#ffffff" d="M 535.320312 786.621094 L 535.320312 836.722656 L 635.519531 836.722656 L 635.519531 786.621094 Z M 535.320312 786.621094 " fill-opacity="1" fill-rule="nonzero"/><g clip-path="url(#ea7174d6fb)"><g transform="matrix(1, 0, 0, 1, 218, 479)"><g clip-path="url(#d112c82219)"><g clip-path="url(#13a118297a)"><path fill="#000000" d="M 0.757812 0.242188 L 383.101562 0.242188 L 383.101562 243.121094 L 0.757812 243.121094 Z M 0.757812 0.242188 " fill-opacity="1" fill-rule="nonzero"/></g></g></g></g><g transform="matrix(1, 0, 0, 1, 235, 578)"><g clip-path="url(#14b759a050)"><path fill="#ffffff" d="M 151.355469 151.699219 L 251.558594 151.699219 L 251.558594 101.597656 L 101.257812 101.597656 L 101.257812 151.699219 Z M 151.355469 151.699219 " fill-opacity="1" fill-rule="nonzero"/><path fill="#ffffff" d="M 101.253906 101.597656 L 51.15625 101.597656 L 51.15625 51.496094 L 101.253906 51.496094 Z M 101.253906 101.597656 " fill-opacity="1" fill-rule="nonzero"/><path fill="#ffffff" d="M 51.15625 51.496094 L 1.054688 51.496094 L 1.054688 1.398438 L 51.15625 1.398438 Z M 51.15625 51.496094 " fill-opacity="1" fill-rule="nonzero"/><path fill="#ffffff" d="M 351.757812 51.496094 L 301.660156 51.496094 L 301.660156 1.398438 L 351.757812 1.398438 Z M 351.757812 51.496094 " fill-opacity="1" fill-rule="nonzero"/><path fill="#ffffff" d="M 301.660156 101.597656 L 251.558594 101.597656 L 251.558594 51.496094 L 301.660156 51.496094 Z M 301.660156 101.597656 " fill-opacity="1" fill-rule="nonzero"/></g></g></svg>